<?xml version="1.0" encoding="UTF-8" standalone="no"?>
<svg
   xmlns:dc="http://purl.org/dc/elements/1.1/"
   xmlns:cc="http://creativecommons.org/ns#"
   xmlns:rdf="http://www.w3.org/1999/02/22-rdf-syntax-ns#"
   xmlns:svg="http://www.w3.org/2000/svg"
   xmlns="http://www.w3.org/2000/svg"
   viewBox="0 0 481.33334 276"
   height="276"
   width="481.33334"
   xml:space="preserve"
   id="svg2"
   version="1.1"><metadata
     id="metadata8"><rdf:RDF><cc:Work
         rdf:about=""><dc:format>image/svg+xml</dc:format><dc:type
           rdf:resource="http://purl.org/dc/dcmitype/StillImage" /></cc:Work></rdf:RDF></metadata><defs
     id="defs6" /><g
     transform="matrix(1.3333333,0,0,-1.3333333,0,276)"
     id="g10"><g
       transform="scale(0.1)"
       id="g12"><path
         id="path14"
         style="fill:#3094b0;fill-opacity:1;fill-rule:evenodd;stroke:none"
         d="M 2468.59,1438.01 H 1719.1 L 1648.59,1315 h 749.5 l 70.5,123.01 m -327.5,-298.52 h -593.98 l 70.51,123.01 h 593.98 l -70.51,-123.01" /><path
         id="path16"
         style="fill:#0f82bf;fill-opacity:1;fill-rule:evenodd;stroke:none"
         d="m 1490.12,1139.49 274.49,475 -71.02,122.5 -344.49,-597.5 h 141.02 m -346.02,0 448.01,773.01 70.98,-122.5 -375,-650.51 H 1144.1" /><path
         id="path18"
         style="fill:#2e7091;fill-opacity:1;fill-rule:evenodd;stroke:none"
         d="m 1558.59,2069.49 336.02,-581.99 141.48,0.51 -335.97,581.99 -141.53,-0.51 m 380.51,-61.01 300,-520.47 -141.48,-0.51 -300,520.51 141.48,0.47" /><path
         id="path20"
         style="fill:#27617e;fill-opacity:1;fill-rule:nonzero;stroke:none"
         d="m 131.84,619.77 c 85.39,0 128.121,49.14 128.121,147.5 0,85.621 -42.731,128.429 -128.121,128.429 H 45.1211 V 619.77 Z M -0.0390625,583.199 V 932.27 H 141.68 c 109.058,0 163.59,-55 163.59,-165 0,-122.739 -54.532,-184.071 -163.59,-184.071 z M 571.762,698.52 h -172.66 c 0,-52.5 33.046,-78.75 99.218,-78.75 22.578,0 45.2,2.421 67.809,7.339 v -36.558 c -22.609,-4.93 -50.109,-7.352 -82.5,-7.352 -86.481,0 -129.68,43.68 -129.68,131.102 0,83.508 40.93,125.308 122.813,125.308 78.437,0 110.078,-47.027 95,-141.089 z m -172.66,37.5 h 131.41 c 2.258,44.878 -18.09,67.339 -61.102,67.339 -43.98,0 -67.422,-22.461 -70.308,-67.339 z" /><path
         id="path22"
         style="fill:#27617e;fill-opacity:1;fill-rule:nonzero;stroke:none"
         d="m 642.5,583.211 h 45.1602 V 932.27 H 642.5 Z" /><path
         id="path24"
         style="fill:#27617e;fill-opacity:1;fill-rule:nonzero;stroke:none"
         d="m 760.66,881.02 h 28.442 l 9.687,-41.411 h 59.531 v -36.718 h -52.5 V 655.699 c 0,-23.98 10.352,-35.929 31.09,-35.929 h 21.41 v -36.571 h -33.121 c -43.051,0 -64.539,23.012 -64.539,69.071 z" /><path
         id="path26"
         style="fill:#27617e;fill-opacity:1;fill-rule:nonzero;stroke:none"
         d="m 907.66,663.051 c 0,52.57 34.68,78.898 104.06,78.898 25.51,0 47.81,-1.679 66.87,-5 v 24.223 c 0,27.808 -23.04,41.719 -69.06,41.719 -26.37,0 -53.401,-4.059 -81.089,-12.192 v 36.723 c 27.688,8.129 54.719,12.187 81.089,12.187 76.13,0 114.22,-27.339 114.22,-82.031 V 583.199 h -22.97 l -17.97,18.129 c -22.3,-12.109 -48.55,-18.129 -78.75,-18.129 -64.29,0 -96.4,26.602 -96.4,79.852 z m 104.06,42.179 c -39.298,0 -58.911,-13.82 -58.911,-41.402 0,-29.379 17.07,-44.058 51.251,-44.058 31.25,0 56.1,6.71 74.53,20.152 v 60.469 c -17.93,3.199 -40.23,4.839 -66.87,4.839 z" /><path
         id="path28"
         style="fill:#27617e;fill-opacity:1;fill-rule:nonzero;stroke:none"
         d="M 1543.63,932.27 V 895.699 H 1360.51 V 778.52 h 174.69 v -36.571 h -174.69 v -158.75 h -45.16 V 932.27 Z" /><path
         id="path30"
         style="fill:#27617e;fill-opacity:1;fill-rule:nonzero;stroke:none"
         d="m 1656.41,895.699 h -45.1602 v 36.5703 h 45.1602 z m 0,-312.5 h -45.1602 v 256.41 h 45.1602 z" /><path
         id="path32"
         style="fill:#27617e;fill-opacity:1;fill-rule:nonzero;stroke:none"
         d="m 1729.41,583.199 v 256.41 h 30.63 l 7.97,-32.808 c 31.13,21.871 62.38,32.808 93.75,32.808 59.06,0 88.59,-31.839 88.59,-95.468 V 583.199 H 1905.2 V 744.77 c 0,38.121 -18.99,57.179 -56.88,57.179 -25.86,0 -50.43,-10.859 -73.75,-32.5 v -186.25 z" /><path
         id="path34"
         style="fill:#27617e;fill-opacity:1;fill-rule:nonzero;stroke:none"
         d="m 2011.17,663.051 c 0,52.57 34.69,78.898 104.06,78.898 25.51,0 47.82,-1.679 66.88,-5 v 24.223 c 0,27.808 -23.05,41.719 -69.06,41.719 -26.37,0 -53.4,-4.059 -81.1,-12.192 v 36.723 c 27.7,8.129 54.73,12.187 81.1,12.187 76.13,0 114.22,-27.339 114.22,-82.031 V 583.199 h -22.97 l -17.97,18.129 c -22.31,-12.109 -48.56,-18.129 -78.75,-18.129 -64.3,0 -96.41,26.602 -96.41,79.852 z m 104.06,42.179 c -39.29,0 -58.9,-13.82 -58.9,-41.402 0,-29.379 17.07,-44.058 51.25,-44.058 31.25,0 56.09,6.71 74.53,20.152 v 60.469 c -17.93,3.199 -40.23,4.839 -66.88,4.839 z" /><path
         id="path36"
         style="fill:#27617e;fill-opacity:1;fill-rule:nonzero;stroke:none"
         d="m 2300.7,583.199 v 256.41 h 30.63 l 7.97,-32.808 c 31.13,21.871 62.38,32.808 93.75,32.808 59.06,0 88.59,-31.839 88.59,-95.468 V 583.199 h -45.16 V 744.77 c 0,38.121 -18.98,57.179 -56.87,57.179 -25.86,0 -50.43,-10.859 -73.75,-32.5 v -186.25 z" /><path
         id="path38"
         style="fill:#27617e;fill-opacity:1;fill-rule:nonzero;stroke:none"
         d="m 2789.96,590.551 c -21.17,-4.93 -43.91,-7.352 -68.28,-7.352 -92.81,0 -139.22,44.379 -139.22,133.129 0,82.192 46.41,123.281 139.22,123.281 24.37,0 47.11,-2.461 68.28,-7.339 v -36.719 c -21.17,4.879 -42.3,7.34 -63.44,7.34 -65.93,0 -98.9,-28.871 -98.9,-86.563 0,-64.379 32.97,-96.558 98.9,-96.558 21.14,0 42.27,2.421 63.44,7.339 z" /><path
         id="path40"
         style="fill:#27617e;fill-opacity:1;fill-rule:nonzero;stroke:none"
         d="m 3050.27,698.52 h -172.65 c 0,-52.5 33.04,-78.75 99.22,-78.75 22.57,0 45.19,2.421 67.81,7.339 v -36.558 c -22.62,-4.93 -50.12,-7.352 -82.5,-7.352 -86.49,0 -129.69,43.68 -129.69,131.102 0,83.508 40.94,125.308 122.81,125.308 78.44,0 110.08,-47.027 95,-141.089 z m -172.65,37.5 h 131.4 c 2.27,44.878 -18.08,67.339 -61.09,67.339 -43.98,0 -67.42,-22.461 -70.31,-67.339 z" /><path
         id="path42"
         style="fill:#27617e;fill-opacity:1;fill-rule:nonzero;stroke:none"
         d="m 3166.17,895.699 h -45.1523 v 36.5703 h 45.1523 z m 0,-312.5 h -45.1523 v 256.41 h 45.1523 z" /><path
         id="path44"
         style="fill:#27617e;fill-opacity:1;fill-rule:nonzero;stroke:none"
         d="m 3239.18,583.199 v 256.41 h 30.62 l 7.97,-32.808 c 22.5,21.871 49.53,32.808 81.1,32.808 v -37.66 c -30.63,0 -55.47,-10.859 -74.53,-32.5 v -186.25 z" /><path
         id="path46"
         style="fill:#27617e;fill-opacity:1;fill-rule:nonzero;stroke:none"
         d="m 3392.03,663.051 c 0,52.57 34.69,78.898 104.06,78.898 25.51,0 47.82,-1.679 66.88,-5 v 24.223 c 0,27.808 -23.05,41.719 -69.06,41.719 -26.37,0 -53.4,-4.059 -81.1,-12.192 v 36.723 c 27.7,8.129 54.73,12.187 81.1,12.187 76.13,0 114.21,-27.339 114.21,-82.031 V 583.199 h -22.96 l -17.97,18.129 c -22.31,-12.109 -48.56,-18.129 -78.75,-18.129 -64.3,0 -96.41,26.602 -96.41,79.852 z m 104.06,42.179 c -39.29,0 -58.9,-13.82 -58.9,-41.402 0,-29.379 17.07,-44.058 51.25,-44.058 31.25,0 56.09,6.71 74.53,20.152 v 60.469 c -17.93,3.199 -40.24,4.839 -66.88,4.839 z" /><path
         id="path48"
         style="fill:#849daa;fill-opacity:1;fill-rule:nonzero;stroke:none"
         d="M 291.371,81.7188 V 326.09 H 331.52 L 421.211,122.191 509.34,326.09 h 38.43 V 81.7188 H 519.488 V 278.75 L 432.77,81.7188 h -25 L 319.648,278.75 V 81.7188 Z M 742.891,162.34 H 622.109 c 0,-36.68 23.121,-55 69.371,-55 15.821,0 31.641,1.719 47.5,5.16 V 86.8789 c -15.859,-3.4375 -35.109,-5.1601 -57.808,-5.1601 -60.551,0 -90.781,30.5512 -90.781,91.7222 0,58.438 28.668,87.649 86.089,87.649 54.891,0 77.04,-32.93 66.411,-98.75 z m -120.782,26.41 h 91.871 c 1.571,31.449 -12.652,47.191 -42.652,47.191 -30.859,0 -47.269,-15.742 -49.219,-47.191 z" /><path
         id="path50"
         style="fill:#849daa;fill-opacity:1;fill-rule:nonzero;stroke:none"
         d="m 792.422,81.7109 h 31.5586 v 244.379 H 792.422 Z" /><path
         id="path52"
         style="fill:#849daa;fill-opacity:1;fill-rule:nonzero;stroke:none"
         d="M 875.16,81.7188 V 326.09 h 31.559 v -84.371 c 18.75,12.89 39.101,19.371 61.09,19.371 41.331,0 62.031,-22.262 62.031,-66.711 V 81.7188 H 998.281 V 194.84 c 0,26.64 -13.281,40 -39.84,40 -18.132,0 -35.39,-7.57 -51.722,-22.649 V 81.7188 Z" /><path
         id="path54"
         style="fill:#849daa;fill-opacity:1;fill-rule:nonzero;stroke:none"
         d="m 1157.77,107.34 c 35.94,0 53.91,21.609 53.91,64.851 0,42.188 -17.97,63.278 -53.91,63.278 -35.86,0 -53.75,-21.09 -53.75,-63.278 0,-43.242 17.89,-64.851 53.75,-64.851 z m -85.47,64.07 c 0,59.762 28.48,89.68 85.47,89.68 56.96,0 85.47,-29.918 85.47,-89.68 0,-59.691 -28.51,-89.5311 -85.47,-89.5311 -56.68,0 -85.15,29.8401 -85.47,89.5311 z" /><path
         id="path56"
         style="fill:#849daa;fill-opacity:1;fill-rule:nonzero;stroke:none"
         d="M 1285.98,81.7188 V 261.09 h 21.4 l 5.63,-22.809 c 15.7,15.199 34.61,22.809 56.72,22.809 v -26.25 c -21.49,0 -38.87,-7.57 -52.19,-22.649 V 81.7188 Z" /><path
         id="path58"
         style="fill:#849daa;fill-opacity:1;fill-rule:nonzero;stroke:none"
         d="m 1545.43,162.34 h -120.78 c 0,-36.68 23.12,-55 69.37,-55 15.82,0 31.64,1.719 47.5,5.16 V 86.8789 c -15.86,-3.4375 -35.11,-5.1601 -57.81,-5.1601 -60.55,0 -90.78,30.5512 -90.78,91.7222 0,58.438 28.67,87.649 86.09,87.649 54.89,0 77.03,-32.93 66.41,-98.75 z m -120.78,26.41 h 91.87 c 1.57,31.449 -12.65,47.191 -42.65,47.191 -30.86,0 -47.27,-15.742 -49.22,-47.191 z" /><path
         id="path60"
         style="fill:#849daa;fill-opacity:1;fill-rule:nonzero;stroke:none"
         d="M 1594.96,90.3086 V 117.66 c 19.88,-6.879 40.63,-10.32 62.19,-10.32 28.63,0 42.97,8.519 42.97,25.629 0,15.941 -9.46,23.91 -28.28,23.91 h -29.07 c -37.61,0 -56.4,17.652 -56.4,52.961 0,34.14 24.88,51.25 74.68,51.25 21.45,0 42.11,-2.809 62.04,-8.43 v -27.351 c -19.93,6.761 -40.59,10.16 -62.04,10.16 -29.8,0 -44.68,-8.559 -44.68,-25.629 0,-15.93 8.79,-23.899 26.4,-23.899 h 29.07 c 39.88,0 59.84,-17.66 59.84,-52.972 0,-34.1799 -24.84,-51.2502 -74.53,-51.2502 -21.56,0 -42.31,2.8515 -62.19,8.5898 z" /><path
         id="path62"
         style="fill:#849daa;fill-opacity:1;fill-rule:nonzero;stroke:none"
         d="m 1860.9,90.3086 v 29.0704 c 25.62,-9.18 53.32,-13.758 83.12,-13.758 41.96,0 62.97,15.359 62.97,46.098 0,26.25 -15.47,39.371 -46.4,39.371 h -35 c -51.18,0 -76.72,22.23 -76.72,66.719 0,46.64 32.73,70 98.28,70 28.51,0 55.04,-3.43 79.53,-10.309 v -29.059 c -24.49,9.137 -51.02,13.75 -79.53,13.75 -44.38,0 -66.56,-14.812 -66.56,-44.382 0,-26.25 15,-39.368 45,-39.368 h 35 c 51.95,0 77.96,-22.269 77.96,-66.722 0,-47.809 -31.52,-71.719 -94.53,-71.719 -29.8,0 -57.5,3.4414 -83.12,10.3086 z" /><path
         id="path64"
         style="fill:#849daa;fill-opacity:1;fill-rule:nonzero;stroke:none"
         d="m 2158.55,107.34 c 35.94,0 53.91,21.609 53.91,64.851 0,42.188 -17.97,63.278 -53.91,63.278 -35.85,0 -53.75,-21.09 -53.75,-63.278 0,-43.242 17.9,-64.851 53.75,-64.851 z m -85.46,64.07 c 0,59.762 28.47,89.68 85.46,89.68 56.96,0 85.47,-29.918 85.47,-89.68 0,-59.691 -28.51,-89.5311 -85.47,-89.5311 -56.67,0 -85.15,29.8401 -85.46,89.5311 z" /><path
         id="path66"
         style="fill:#849daa;fill-opacity:1;fill-rule:nonzero;stroke:none"
         d="m 2286.76,81.7109 h 31.5586 v 244.379 H 2286.76 Z" /><path
         id="path68"
         style="fill:#849daa;fill-opacity:1;fill-rule:nonzero;stroke:none"
         d="M 2524.18,261.09 V 81.7188 h -21.72 l -5.47,22.9722 c -21.79,-15.3121 -43.67,-22.9722 -65.62,-22.9722 -41.25,0 -61.88,22.2612 -61.88,66.8712 v 112.5 h 31.56 V 147.969 c 0,-26.68 13.21,-40 39.69,-40 18.13,0 35.39,7.582 51.88,22.812 V 261.09 Z" /><path
         id="path70"
         style="fill:#849daa;fill-opacity:1;fill-rule:nonzero;stroke:none"
         d="m 2711.95,86.8789 c -14.8,-3.4375 -30.74,-5.1601 -47.81,-5.1601 -65,0 -97.5,31.0112 -97.5,93.1212 0,57.5 32.5,86.25 97.5,86.25 17.07,0 33.01,-1.68 47.81,-5 v -25.621 c -14.8,3.32 -29.61,5 -44.37,5 -46.17,0 -69.22,-20.239 -69.22,-60.629 0,-45 23.05,-67.5 69.22,-67.5 14.76,0 29.57,1.719 44.37,5.16 z m -94.37,-50.3203 c 12.26,-5.6172 24.61,-8.4375 37.03,-8.4375 12.27,0 18.44,3.7187 18.44,11.0977 0,7.3007 -4.77,10.9414 -14.22,10.9414 h -31.25 l 22.34,44.2187 h 23.13 l -13.91,-25.7891 c 24.38,0 36.56,-9.7617 36.56,-29.371 0,-19.7696 -13.71,-29.68755 -41.09,-29.68755 -12.42,0 -24.77,2.89065 -37.03,8.58985 z" /><path
         id="path72"
         style="fill:#849daa;fill-opacity:1;fill-rule:nonzero;stroke:none"
         d="m 2827.11,107.34 c 35.94,0 53.91,21.609 53.91,64.851 0,42.188 -17.97,63.278 -53.91,63.278 -35.86,0 -53.75,-21.09 -53.75,-63.278 0,-43.242 17.89,-64.851 53.75,-64.851 z m -85.47,64.07 c 0,59.762 28.48,89.68 85.47,89.68 56.95,0 85.47,-29.918 85.47,-89.68 0,-59.691 -28.52,-89.5311 -85.47,-89.5311 -56.68,0 -85.16,29.8401 -85.47,89.5311 z m 127.5,157.969 V 303.75 c -11.99,-9.18 -25.7,-10.309 -41.09,-3.441 -15.32,6.882 -30.12,5.711 -44.38,-3.43 V 322.5 c 11.95,9.141 25.67,10.309 41.1,3.441 15.39,-6.882 30.19,-5.742 44.37,3.438 z" /><path
         id="path74"
         style="fill:#849daa;fill-opacity:1;fill-rule:nonzero;stroke:none"
         d="m 3099.22,162.34 h -120.78 c 0,-36.68 23.12,-55 69.37,-55 15.82,0 31.64,1.719 47.5,5.16 V 86.8789 c -15.86,-3.4375 -35.11,-5.1601 -57.81,-5.1601 -60.55,0 -90.78,30.5512 -90.78,91.7222 0,58.438 28.67,87.649 86.09,87.649 54.89,0 77.03,-32.93 66.41,-98.75 z m -120.78,26.41 h 91.87 c 1.57,31.449 -12.65,47.191 -42.65,47.191 -30.86,0 -47.27,-15.742 -49.22,-47.191 z" /><path
         id="path76"
         style="fill:#849daa;fill-opacity:1;fill-rule:nonzero;stroke:none"
         d="M 3148.79,90.3086 V 117.66 c 19.88,-6.879 40.62,-10.32 62.19,-10.32 28.63,0 42.97,8.519 42.97,25.629 0,15.941 -9.46,23.91 -28.29,23.91 h -29.06 c -37.62,0 -56.4,17.652 -56.4,52.961 0,34.14 24.88,51.25 74.68,51.25 21.45,0 42.11,-2.809 62.03,-8.43 v -27.351 c -19.92,6.761 -40.58,10.16 -62.03,10.16 -29.8,0 -44.68,-8.559 -44.68,-25.629 0,-15.93 8.78,-23.899 26.4,-23.899 h 29.06 c 39.89,0 59.85,-17.66 59.85,-52.972 0,-34.1799 -24.85,-51.2502 -74.53,-51.2502 -21.57,0 -42.31,2.8515 -62.19,8.5898 z" /></g></g></svg>